PathFileType	4	(X/Y/Z)	Patient4_TMGait_0pt8_01_left_52.trc.trc
DataRate	CameraRate	NumFrames	NumMarkers	Units	OrigDataRate	OrigDataStartFrame	OrigNumFrames
86.419753086420	86.419753086420	4	33	mm	86.419753086420	53	       141
Frame#	Time	Sacral			L.Shoulder			Chest			R.Shoulder			Neck			R.ASIS			L.ASIS			R.Thigh.Superior			R.Thigh.Lateral			R.Thigh.Inferior			R.Patella			L.Thigh.Superior			L.Thigh.Lateral			L.Thigh.Inferior			L.Patella			L.Shank.Superior			L.Shank.Lateral			L.Shank.Inferior			R.Shank.Superior			R.Shank.Lateral			R.Shank.Inferior			R.Heel			R.Midfoot.Superior			R.Midfoot.Lateral			R.Toe			L.Heel			L.Midfoot.Lateral			L.Midfoot.Superior			L.Toe			L.Elbow			L.Wrist			R.Elbow			R.Wrist			
		X1	Y1	Z1	X2	Y2	Z2	X3	Y3	Z3	X4	Y4	Z4	X5	Y5	Z5	X6	Y6	Z6	X7	Y7	Z7	X8	Y8	Z8	X9	Y9	Z9	X10	Y10	Z10	X11	Y11	Z11	X12	Y12	Z12	X13	Y13	Z13	X14	Y14	Z14	X15	Y15	Z15	X16	Y16	Z16	X17	Y17	Z17	X18	Y18	Z18	X19	Y19	Z19	X20	Y20	Z20	X21	Y21	Z21	X22	Y22	Z22	X23	Y23	Z23	X24	Y24	Z24	X25	Y25	Z25	X26	Y26	Z26	X27	Y27	Z27	X28	Y28	Z28	X29	Y29	Z29	X30	Y30	Z30	X31	Y31	Z31	X32	Y32	Z32	X33	Y33	Z33	

53	58.581714285714	872.467638772133	1016.980453723543	447.899381111919	1077.226022160105	1438.790325614836	271.541192652110	1173.093941924020	1364.304126053816	434.514421568561	1088.802974640596	1438.824173823248	608.162057632221	1061.475544442554	1498.314914418934	428.270634200909	1095.067126924940	947.785706072140	564.813411700022	1084.743422789130	962.757822360376	292.327036934072	1177.536989903853	778.735352767865	538.166503557058	1138.701582261813	660.117054916380	615.901055147431	1229.630758041889	619.910964642224	539.284549067054	1247.995639997475	506.252366774540	563.710650357378	1130.006844612067	751.279436977627	319.660578362472	1034.679676337030	637.782261856146	267.148606228743	1118.684864295366	558.205201243401	329.341565363745	1117.679958786649	489.121834275417	340.936461913114	1089.577879324029	418.191402907316	334.587598625896	997.301811912074	304.104611964342	289.871440676714	1049.340899038674	193.584612889687	360.822508824460	1168.940928400686	433.046145447697	571.904892697016	1043.948766791127	400.889980584164	629.858233441405	1027.002761729652	290.477473756637	585.165913989386	826.144035155963	240.197137680993	552.559896578989	987.885989606718	169.232338589418	601.291022201907	877.193313862880	177.420422693514	629.206014021066	1041.059866390738	51.489170471086	631.098541950032	920.690462745724	38.997223278535	410.654577933889	990.742672031471	36.322058082275	326.474242530650	1075.523655458627	96.594697565707	350.343658081500	1202.465049243645	43.023111684465	315.348954879956	1054.851747289365	1090.243046201001	139.442223158671	1195.294414773550	868.686940893865	145.898050961712	1076.764461455508	1082.251730218264	709.874086330722	1262.083343372950	900.941108660283	698.805294930522	
54	58.593285714286	870.574680051620	1017.222469717440	445.792371056804	1077.728924126333	1439.453373482559	271.483737400632	1171.770650733258	1364.459652053925	435.249293035641	1085.802017261797	1438.530381643921	608.300343710663	1060.738642585014	1498.581561067263	428.243661382948	1092.715163339352	948.821112712526	564.664401251243	1083.853995616756	962.844198580882	291.962387321334	1178.256868651799	783.484517179699	537.858678934281	1142.592007948564	664.089784436881	615.985834235073	1234.387377296642	625.893062067490	539.668049104744	1255.988519626766	513.196244770999	564.393755879038	1126.795378201556	750.257545793332	319.929145326940	1030.319319172484	637.751141939864	266.581011117016	1112.796270414213	557.205885691160	329.319022145841	1110.729121335457	488.241244756456	341.028184215808	1082.473772976675	417.633595002126	334.496710862563	989.721835545081	304.036439740348	289.595707519472	1040.717162085645	193.286337108725	360.811210158400	1179.936661466904	437.234879087736	572.470030643786	1056.726168615906	399.221973731265	630.424546249961	1044.959963444633	288.105095928896	585.691708467429	846.626664608384	228.097755005318	553.069952568042	1011.764017752607	165.354204156512	602.075784516815	900.719721706859	167.965834526033	629.779078759277	1070.645025877313	50.372602551849	631.800947182063	911.346247158609	39.045696307288	410.580019637774	981.450495437698	36.319084031001	326.440913199096	1066.263541127321	96.534335037799	350.338492268117	1193.204073557113	42.883648225809	315.327242916951	1064.015315537371	1091.801749558113	136.117622670392	1216.413472851016	878.476787388620	143.292985576313	1068.075707844762	1081.654561356367	709.630779929440	1235.336584110602	882.355780082335	703.319372332798	
55	58.604857142857	868.779104614478	1017.414111137829	443.820291312227	1078.342539849597	1440.044822319094	271.579684645310	1170.584880059058	1364.504165365756	436.073997703575	1082.972997598772	1438.113773045389	608.543427058887	1060.074693458535	1498.749752543002	428.362602887375	1090.498688334401	949.684637928662	564.645535663608	1083.087463498363	962.898678748596	291.710748502847	1178.672582425651	787.783783761299	537.788568372144	1145.784748269016	667.641447064722	616.126233042759	1238.285891212085	631.257539937605	540.079178866010	1262.871883485638	519.798312072672	565.080098294849	1123.478658724387	749.175490886157	320.486323531823	1025.987350773690	637.681864420120	266.060171395087	1106.827261642985	556.174466228152	329.377406884674	1103.673897851919	487.350835563208	341.136832398403	1075.297724027510	417.059795054318	334.418397139190	982.103249864350	303.939122203296	289.310981696711	1032.036031383919	192.978589116249	360.810558436017	1190.222999916215	441.130516621252	573.080632114052	1069.424772474274	396.713475941917	631.214776918534	1063.385431074186	285.123130181434	586.416387310475	868.408367651944	214.612355523592	554.032849548356	1036.850630519693	160.963068131812	603.122961742955	925.744873731089	157.499584346405	630.732126551307	1101.786447981700	49.218466337103	632.669786461398	901.996862592437	39.092119064504	410.506814736317	972.150559194475	36.307920295636	326.407888725182	1056.996211977032	96.476593279395	350.333362482342	1183.935853936147	42.753079591642	315.316739425154	1072.795933085836	1093.567495466811	133.136221860308	1236.878218507980	889.339415486938	141.168156099999	1059.283985104301	1081.141229640282	709.589362089627	1207.274115592794	866.277139608163	707.505401796371	
56	58.616428571429	867.110748025467	1017.544935274829	442.015096814673	1079.071885838032	1440.537699152191	271.830627576419	1169.559173925484	1364.417797454549	436.983643539798	1080.361643181990	1437.571954602272	608.891995312309	1059.516932602618	1498.809219765301	428.623757361453	1088.438713091806	950.339087799230	564.736746677026	1082.462928982461	962.945970808355	291.558242325202	1178.771933980750	791.509838893840	537.911892700547	1148.202564677136	670.653531233363	616.312178980942	1241.262981624906	635.845828965327	540.486824151803	1268.548168381256	525.903656966821	565.726503908605	1120.074194807165	748.026616132364	321.249764936532	1021.640651268544	637.578336266866	265.578612986230	1100.750600471419	555.108028380706	329.476481772653	1096.500122883783	486.458975911760	341.229782594157	1068.028165526798	416.476349440888	334.333817073755	974.417480089326	303.817037862393	289.010425132114	1023.295965479578	192.666652450474	360.811560314020	1199.695081636374	444.664224905287	573.704674896270	1082.019757026046	393.439461212809	632.217753388297	1082.187465240034	281.691343460767	587.320339646657	891.526909572666	200.064023155469	555.438541150978	1062.997463095051	156.317478635100	604.369316346681	952.230484928028	146.374192787855	632.046353427786	1134.222049103116	48.392359579640	633.659679817848	892.645630527684	39.134578983260	410.435356990712	962.840527960657	36.288358882533	326.374816294940	1047.719346836931	96.422552159003	350.326466349085	1174.657190955697	42.634415009981	315.316221139211	1081.152822581944	1095.480267001776	130.488701627736	1256.578410977211	901.217082488006	139.521325309731	1050.209035415175	1080.758606703565	709.716597095766	1178.276050851630	852.840634349132	711.319892661420	
